<?xml version="1.0" encoding="UTF-8" standalone="no"?>
<svg
   width="44px"
   height="44px"
   viewBox="0 0 44 44"
   version="1.1"
   id="svg4"
   sodipodi:docname="busy02.svg"
   inkscape:version="1.4.2 (ebf0e940d0, 2025-05-08)"
   xmlns:inkscape="http://www.inkscape.org/namespaces/inkscape"
   xmlns:sodipodi="http://sodipodi.sourceforge.net/DTD/sodipodi-0.dtd"
   xmlns="http://www.w3.org/2000/svg"
   xmlns:svg="http://www.w3.org/2000/svg"
   xmlns:rdf="http://www.w3.org/1999/02/22-rdf-syntax-ns#"
   xmlns:cc="http://creativecommons.org/ns#"
   xmlns:dc="http://purl.org/dc/elements/1.1/">
  <metadata
     id="metadata10">
    <rdf:RDF>
      <cc:Work
         rdf:about="">
        <dc:format>image/svg+xml</dc:format>
        <dc:type
           rdf:resource="http://purl.org/dc/dcmitype/StillImage" />
      </cc:Work>
    </rdf:RDF>
  </metadata>
  <defs
     id="defs8" />
  <sodipodi:namedview
     pagecolor="#ffffff"
     bordercolor="#666666"
     borderopacity="1"
     objecttolerance="10"
     gridtolerance="10"
     guidetolerance="10"
     inkscape:pageopacity="0"
     inkscape:pageshadow="2"
     inkscape:window-width="1569"
     inkscape:window-height="960"
     id="namedview6"
     showgrid="false"
     inkscape:zoom="5.3636364"
     inkscape:cx="22.186441"
     inkscape:cy="22.186441"
     inkscape:window-x="0"
     inkscape:window-y="0"
     inkscape:window-maximized="0"
     inkscape:current-layer="svg4"
     inkscape:showpageshadow="2"
     inkscape:pagecheckerboard="0"
     inkscape:deskcolor="#d1d1d1" />
  <path
     fill="#1793d1"
     d="M42,23.5 C41.2,23.5 40.5,22.8 40.5,22 C40.5,11.8 32.2,3.5 22,3.5 C21.2,3.5 20.5,2.8 20.5,2 C20.5,1.2 21.2,0.5 22,0.5 C33.9,0.5 43.5,10.1 43.5,22 C43.5,22.8 42.8,23.5 42,23.5 Z M22,43.5 C10.1,43.5 0.5,33.9 0.5,22 C0.5,21.2 1.2,20.5 2,20.5 C2.8,20.5 3.5,21.2 3.5,22 C3.5,32.2 11.8,40.5 22,40.5 C22.8,40.5 23.5,41.2 23.5,42 C23.5,42.8 22.8,43.5 22,43.5 Z"
     id="path2"
     style="fill:#d3c6aa;fill-opacity:1" />
</svg>
